<svg width="23" height="24" viewBox="0 0 23 24" fill="none" xmlns="http://www.w3.org/2000/svg">
<g id="Edit">
<g id="Iconly/Light outline/Edit">
<g id="Edit_2">
<path id="Vector" d="M18.8496 19.2089C19.1759 19.2089 19.4404 19.498 19.4404 19.8545C19.4404 20.1813 19.2181 20.4514 18.9297 20.4941L18.8496 20.5H12.6853C12.359 20.5 12.0944 20.211 12.0944 19.8545C12.0944 19.5277 12.3167 19.2576 12.6051 19.2148L12.6853 19.2089H18.8496ZM12.8542 4.41662C13.9728 3.19446 15.7872 3.19446 16.9058 4.41662L18.0671 5.6854C19.1858 6.90755 19.1858 8.88985 18.0671 10.112L9.33831 19.6486C8.83919 20.1939 8.16248 20.4999 7.45614 20.4999H3.88138C3.5493 20.4999 3.28244 20.201 3.29071 19.8383L3.38064 15.8975C3.39851 15.1526 3.67747 14.4425 4.15963 13.9157L12.8542 4.41662ZM12.1784 6.979L4.99522 14.8287C4.7272 15.1215 4.57188 15.5169 4.56195 15.9305L4.48692 19.2084L7.45614 19.2088C7.80552 19.2088 8.14151 19.0745 8.40671 18.8317L8.50272 18.7357L15.7215 10.849L12.1784 6.979ZM16.0702 5.32953C15.4131 4.61156 14.3469 4.61156 13.6897 5.32953L13.0146 6.066L16.5568 9.936L17.2315 9.19909C17.8522 8.52101 17.8867 7.44433 17.335 6.72195L17.2315 6.59831L16.0702 5.32953Z" fill="#666666"/>
</g>
</g>
</g>
</svg>
