<svg width="24" height="24" viewBox="0 0 24 24" fill="none" xmlns="http://www.w3.org/2000/svg">
<g id="icon / ionicons / sharp / analytics-sharp">
<path id="Vector" d="M21.0939 6C20.7587 6.00011 20.4282 6.07836 20.1285 6.22853C19.8288 6.37871 19.5683 6.59667 19.3676 6.86512C19.1669 7.13358 19.0316 7.44512 18.9723 7.77503C18.913 8.10493 18.9315 8.44411 19.0262 8.76563L15.6808 12.1106C15.2396 11.9637 14.7626 11.9637 14.3214 12.1106L11.8412 9.63047C11.9228 9.31201 11.9306 8.9791 11.8638 8.6572C11.797 8.3353 11.6575 8.03293 11.456 7.77321C11.2544 7.51349 10.9961 7.3033 10.7009 7.1587C10.4056 7.0141 10.0812 6.93893 9.75248 6.93893C9.42373 6.93893 9.09933 7.0141 8.80408 7.1587C8.50883 7.3033 8.25056 7.51349 8.04901 7.77321C7.84745 8.03293 7.70796 8.3353 7.64118 8.6572C7.5744 8.9791 7.58212 9.31201 7.66373 9.63047L3.51576 13.7756C3.05525 13.6393 2.56243 13.6604 2.11522 13.8354C1.668 14.0105 1.2919 14.3297 1.04635 14.7424C0.800794 15.1552 0.699804 15.638 0.759339 16.1145C0.818874 16.5911 1.03554 17.0342 1.37508 17.3739C1.71463 17.7136 2.15769 17.9304 2.63423 17.99C3.11078 18.0497 3.59362 17.9489 4.00645 17.7035C4.41928 17.4581 4.73854 17.0821 4.91377 16.6349C5.089 16.1877 5.11021 15.6949 4.97404 15.2344L9.06951 11.1394C9.5107 11.2864 9.98769 11.2864 10.4289 11.1394L12.9095 13.62C12.8279 13.9385 12.8202 14.2714 12.887 14.5933C12.9537 14.9152 13.0932 15.2175 13.2948 15.4773C13.4963 15.737 13.7546 15.9472 14.0499 16.0918C14.3451 16.2364 14.6695 16.3115 14.9983 16.3115C15.327 16.3115 15.6514 16.2364 15.9467 16.0918C16.2419 15.9472 16.5002 15.737 16.7017 15.4773C16.9033 15.2175 17.0428 14.9152 17.1096 14.5933C17.1763 14.2714 17.1686 13.9385 17.087 13.62L20.4845 10.2244C20.7811 10.3119 21.0931 10.3346 21.3992 10.2909C21.7054 10.2472 21.9985 10.1382 22.2588 9.97122C22.5191 9.80426 22.7405 9.58326 22.9078 9.32322C23.0752 9.06318 23.1847 8.77018 23.2288 8.46411C23.273 8.15803 23.2508 7.84604 23.1637 7.5493C23.0767 7.25256 22.9268 6.97802 22.7243 6.7443C22.5218 6.51057 22.2714 6.32314 21.9901 6.19472C21.7088 6.0663 21.4031 5.99989 21.0939 6Z" fill="#21272A"/>
</g>
</svg>
