<svg width="25" height="24" viewBox="0 0 25 24" fill="none" xmlns="http://www.w3.org/2000/svg">
<g id="icon / ionicons / outline / calendar-outline">
<path id="Vector (Stroke)" fill-rule="evenodd" clip-rule="evenodd" d="M5.40967 4.5C4.58124 4.5 3.90967 5.17157 3.90967 6V19.5C3.90967 20.3284 4.58124 21 5.40967 21H20.4097C21.2381 21 21.9097 20.3284 21.9097 19.5V6C21.9097 5.17157 21.2381 4.5 20.4097 4.5H5.40967ZM2.40967 6C2.40967 4.34315 3.75281 3 5.40967 3H20.4097C22.0665 3 23.4097 4.34315 23.4097 6V19.5C23.4097 21.1569 22.0665 22.5 20.4097 22.5H5.40967C3.75281 22.5 2.40967 21.1569 2.40967 19.5V6Z" fill="#21272A"/>
<path id="Vector" d="M14.7847 12C15.406 12 15.9097 11.4963 15.9097 10.875C15.9097 10.2537 15.406 9.75 14.7847 9.75C14.1633 9.75 13.6597 10.2537 13.6597 10.875C13.6597 11.4963 14.1633 12 14.7847 12Z" fill="#21272A"/>
<path id="Vector_2" d="M18.5347 12C19.156 12 19.6597 11.4963 19.6597 10.875C19.6597 10.2537 19.156 9.75 18.5347 9.75C17.9133 9.75 17.4097 10.2537 17.4097 10.875C17.4097 11.4963 17.9133 12 18.5347 12Z" fill="#21272A"/>
<path id="Vector_3" d="M14.7847 15.75C15.406 15.75 15.9097 15.2463 15.9097 14.625C15.9097 14.0037 15.406 13.5 14.7847 13.5C14.1633 13.5 13.6597 14.0037 13.6597 14.625C13.6597 15.2463 14.1633 15.75 14.7847 15.75Z" fill="#21272A"/>
<path id="Vector_4" d="M18.5347 15.75C19.156 15.75 19.6597 15.2463 19.6597 14.625C19.6597 14.0037 19.156 13.5 18.5347 13.5C17.9133 13.5 17.4097 14.0037 17.4097 14.625C17.4097 15.2463 17.9133 15.75 18.5347 15.75Z" fill="#21272A"/>
<path id="Vector_5" d="M7.28467 15.75C7.90599 15.75 8.40967 15.2463 8.40967 14.625C8.40967 14.0037 7.90599 13.5 7.28467 13.5C6.66335 13.5 6.15967 14.0037 6.15967 14.625C6.15967 15.2463 6.66335 15.75 7.28467 15.75Z" fill="#21272A"/>
<path id="Vector_6" d="M11.0347 15.75C11.656 15.75 12.1597 15.2463 12.1597 14.625C12.1597 14.0037 11.656 13.5 11.0347 13.5C10.4133 13.5 9.90967 14.0037 9.90967 14.625C9.90967 15.2463 10.4133 15.75 11.0347 15.75Z" fill="#21272A"/>
<path id="Vector_7" d="M7.28467 19.5C7.90599 19.5 8.40967 18.9963 8.40967 18.375C8.40967 17.7537 7.90599 17.25 7.28467 17.25C6.66335 17.25 6.15967 17.7537 6.15967 18.375C6.15967 18.9963 6.66335 19.5 7.28467 19.5Z" fill="#21272A"/>
<path id="Vector_8" d="M11.0347 19.5C11.656 19.5 12.1597 18.9963 12.1597 18.375C12.1597 17.7537 11.656 17.25 11.0347 17.25C10.4133 17.25 9.90967 17.7537 9.90967 18.375C9.90967 18.9963 10.4133 19.5 11.0347 19.5Z" fill="#21272A"/>
<path id="Vector_9" d="M14.7847 19.5C15.406 19.5 15.9097 18.9963 15.9097 18.375C15.9097 17.7537 15.406 17.25 14.7847 17.25C14.1633 17.25 13.6597 17.7537 13.6597 18.375C13.6597 18.9963 14.1633 19.5 14.7847 19.5Z" fill="#21272A"/>
<path id="Vector (Stroke)_2" fill-rule="evenodd" clip-rule="evenodd" d="M6.90967 1.5C7.32388 1.5 7.65967 1.83579 7.65967 2.25V3.75C7.65967 4.16421 7.32388 4.5 6.90967 4.5C6.49545 4.5 6.15967 4.16421 6.15967 3.75V2.25C6.15967 1.83579 6.49545 1.5 6.90967 1.5Z" fill="#21272A"/>
<path id="Vector (Stroke)_3" fill-rule="evenodd" clip-rule="evenodd" d="M18.9097 1.5C19.3239 1.5 19.6597 1.83579 19.6597 2.25V3.75C19.6597 4.16421 19.3239 4.5 18.9097 4.5C18.4955 4.5 18.1597 4.16421 18.1597 3.75V2.25C18.1597 1.83579 18.4955 1.5 18.9097 1.5Z" fill="#21272A"/>
<path id="Vector (Stroke)_4" fill-rule="evenodd" clip-rule="evenodd" d="M3.15967 6.75H22.6597V8.25H3.15967V6.75Z" fill="#21272A"/>
</g>
</svg>
