<svg width="25" height="24" viewBox="0 0 25 24" fill="none" xmlns="http://www.w3.org/2000/svg">
<g id="icon / ionicons / outline / book-outline" clip-path="url(#clip0_700_5680)">
<path id="Vector (Stroke)" fill-rule="evenodd" clip-rule="evenodd" d="M3.15967 3.75001C6.19918 3.76392 8.31784 4.14603 9.74285 4.82687C11.1249 5.4872 11.8651 6.43071 12.1826 7.68418C12.2669 8.01695 12.5664 8.25001 12.9097 8.25001C13.2529 8.25001 13.5524 8.01695 13.6367 7.68418C13.9542 6.43071 14.6944 5.4872 16.0765 4.82687C17.5015 4.14603 19.6202 3.76391 22.6597 3.75001V17.25C17.2462 17.25 14.5875 18.2204 12.9096 19.8791C11.2376 18.228 8.57533 17.2517 3.1737 17.25C3.16731 17.2334 3.15967 17.2043 3.15967 17.1595V3.75001ZM2.58652 2.36289C2.76918 2.28763 2.96494 2.24927 3.1625 2.25001L3.16304 2.25001C6.28908 2.26403 8.66938 2.65158 10.3895 3.47341C11.5083 4.00795 12.3404 4.72361 12.9097 5.61131C13.479 4.72361 14.3111 4.00795 15.4298 3.47341C17.15 2.65158 19.5303 2.26403 22.6563 2.25001L22.6568 2.25001C22.8544 2.24927 23.0502 2.28763 23.2328 2.36289C23.4155 2.43815 23.5815 2.54882 23.7212 2.68852C23.8609 2.82822 23.9715 2.99418 24.0468 3.17685C24.1218 3.35896 24.1602 3.55408 24.1597 3.75103V17.25C24.1597 17.6478 24.0016 18.0294 23.7203 18.3107C23.439 18.592 23.0575 18.75 22.6597 18.75C16.7485 18.75 14.7164 19.9421 13.4953 21.4685C13.353 21.6465 13.1374 21.7501 12.9095 21.75C12.6816 21.75 12.4661 21.6463 12.3238 21.4682C11.111 19.9508 9.07043 18.75 3.15967 18.75C2.70728 18.75 2.31139 18.5585 2.03995 18.2397C1.77797 17.932 1.65967 17.5414 1.65967 17.1595V3.75118C1.65915 3.55418 1.69751 3.35901 1.77256 3.17685C1.84782 2.99418 1.95849 2.82821 2.09818 2.68852C2.23788 2.54882 2.40385 2.43815 2.58652 2.36289Z" fill="#21272A"/>
<path id="Vector (Stroke)_2" fill-rule="evenodd" clip-rule="evenodd" d="M12.9097 6.75C13.3239 6.75 13.6597 7.08579 13.6597 7.5V21C13.6597 21.4142 13.3239 21.75 12.9097 21.75C12.4955 21.75 12.1597 21.4142 12.1597 21V7.5C12.1597 7.08579 12.4955 6.75 12.9097 6.75Z" fill="#21272A"/>
</g>
<defs>
<clipPath id="clip0_700_5680">
<rect width="24" height="24" fill="white" transform="translate(0.909668)"/>
</clipPath>
</defs>
</svg>
