<svg width="23" height="22" viewBox="0 0 23 22" fill="none" xmlns="http://www.w3.org/2000/svg">
<g id="Group 16">
<path id="Vector" d="M12.7501 10.8023C10.2704 10.8023 8.08602 8.4055 7.87508 5.459C7.76727 3.96404 8.21727 2.58 9.14071 1.56247C10.0501 0.55458 11.3345 0 12.7501 0C14.1563 0 15.436 0.559402 16.3501 1.57211C17.2782 2.59929 17.7282 3.97851 17.6204 5.459C17.4095 8.4055 15.2251 10.8023 12.7501 10.8023ZM12.7501 1.54318C11.7563 1.54318 10.861 1.92415 10.2376 2.61376C9.60477 3.31301 9.29539 4.28714 9.37039 5.34808C9.52039 7.46995 11.0673 9.2639 12.7454 9.2639C14.4235 9.2639 15.9704 7.46995 16.1204 5.34808C16.1954 4.30161 15.886 3.3323 15.2438 2.6234C14.6251 1.92415 13.7345 1.54318 12.7501 1.54318Z" fill="#21272A"/>
<path id="Vector_2" d="M20.9999 21.6045H4.49986C4.04986 21.6045 3.64205 21.4116 3.3608 21.0644C3.05611 20.6882 2.93424 20.1771 3.02799 19.6611C3.42174 17.4042 4.65924 15.5089 6.59986 14.178C8.32486 12.9965 10.5092 12.3454 12.7499 12.3454C14.9905 12.3454 17.1749 12.9965 18.8999 14.178C20.8405 15.5089 22.078 17.4042 22.4717 19.6611C22.5608 20.1771 22.4389 20.6882 22.1342 21.0644C21.853 21.4116 21.4499 21.6045 20.9999 21.6045ZM4.50924 20.0613H20.9905C20.9999 20.0372 21.0045 19.9986 20.9952 19.9359C20.2686 15.7838 16.2092 13.8886 12.7499 13.8886C9.29049 13.8886 5.23111 15.7838 4.50455 19.9359C4.49517 19.9986 4.49986 20.0372 4.50924 20.0613Z" fill="#21272A"/>
<path id="Vector_3" d="M3.375 13.117C2.9625 13.117 2.625 12.7698 2.625 12.3454V6.94432C2.625 6.51994 2.9625 6.17273 3.375 6.17273C3.7875 6.17273 4.125 6.51994 4.125 6.94432V12.3454C4.125 12.7698 3.7875 13.117 3.375 13.117Z" fill="#21272A"/>
<path id="Vector_4" d="M6 10.4165H0.75C0.3375 10.4165 0 10.0693 0 9.64488C0 9.22051 0.3375 8.87329 0.75 8.87329H6C6.4125 8.87329 6.75 9.22051 6.75 9.64488C6.75 10.0693 6.4125 10.4165 6 10.4165Z" fill="#21272A"/>
</g>
</svg>
