<svg width="20" height="19" viewBox="0 0 20 19" fill="none" xmlns="http://www.w3.org/2000/svg">
<g id="Search">
<g id="Iconly/Light-Outline/Search">
<g id="Search_2">
<path id="Combined-Shape" fill-rule="evenodd" clip-rule="evenodd" d="M9.78234 1.58334C14.2573 1.58334 17.8973 5.04134 17.8973 9.29259C17.8973 11.2983 17.0871 13.1276 15.7612 14.5006L18.3702 16.9739C18.6143 17.2059 18.6152 17.5811 18.371 17.8131C18.2493 17.9302 18.0885 17.988 17.9285 17.988C17.7693 17.988 17.6093 17.9302 17.4868 17.8146L14.8464 15.3132C13.4574 16.37 11.6962 17.0026 9.78234 17.0026C5.30734 17.0026 1.6665 13.5438 1.6665 9.29259C1.6665 5.04134 5.30734 1.58334 9.78234 1.58334ZM9.78234 2.77084C5.9965 2.77084 2.9165 5.69605 2.9165 9.29259C2.9165 12.8891 5.9965 15.8151 9.78234 15.8151C13.5673 15.8151 16.6473 12.8891 16.6473 9.29259C16.6473 5.69605 13.5673 2.77084 9.78234 2.77084Z" fill="#1C1C1C" fill-opacity="0.7"/>
</g>
</g>
</g>
</svg>
