<svg width="31" height="30" viewBox="0 0 31 30" fill="none" xmlns="http://www.w3.org/2000/svg">
<g id="bxs:hot">
<path id="Vector" d="M21.1597 9.99999C21.1597 11.875 20.5347 14.375 17.5347 15.375C18.4097 13.25 18.5347 11.125 17.9097 9.12499C17.0347 6.49999 14.1597 4.49999 12.1597 3.37499C11.6597 2.99999 10.7847 3.49999 10.9097 4.24999C10.9097 5.62499 10.5347 7.62499 8.40967 9.74999C5.65967 12.5 4.28467 15.375 4.28467 18.125C4.28467 21.75 6.78467 26.25 11.7847 26.25C6.78467 21.25 10.5347 16.875 10.5347 16.875C11.5347 24.25 16.7847 26.25 19.2847 26.25C21.4097 26.25 25.5347 24.75 25.5347 18.25C25.5347 14.375 23.9097 11.375 22.5347 9.62499C22.1597 8.99999 21.2847 9.37499 21.1597 9.99999Z" fill="black"/>
</g>
</svg>
